<svg id="Capa_1" enable-background="new 0 0 512 512" height="512" viewBox="0 0 512 512" width="512" xmlns="http://www.w3.org/2000/svg"><g><path d="m368 112v104.34h-66.96v-102.11c0-12.44-5.04-23.7-13.19-31.85-8.15-8.16-19.41-13.2-31.85-13.2-24.88 0-45.04 20.17-45.04 45.05v102.11h-66.96v-104.34c0-61.86 50.15-112 112-112s112 50.14 112 112z" fill="#cddbf9"/><path d="m368 112v104.34h-66.96v-102.11c0-12.44-5.04-23.7-13.19-31.85-8.15-8.16-19.41-13.2-31.85-13.2v-69.18c61.85 0 112 50.14 112 112z" fill="#afc2e8"/><path d="m433.39 197.58v314.42h-162.39l-15-15-15 15h-162.39v-314.42z" fill="#fea000"/><path d="m433.39 197.58v314.42h-162.39l-15-15v-299.42z" fill="#f78002"/><path d="m301.04 315.92c0 19.61-12.54 36.29-30.04 42.47v153.61h-30v-153.61c-17.5-6.18-30.04-22.86-30.04-42.47 0-24.88 20.16-45.05 45.04-45.05s45.04 20.17 45.04 45.05z" fill="#fbe200"/><path d="m301.04 315.92c0 19.61-12.54 36.29-30.04 42.47v153.61h-15v-241.13c24.88 0 45.04 20.17 45.04 45.05z" fill="#febf01"/></g></svg>